<svg width="222" height="82" viewBox="0 0 222 82" fill="none" xmlns="http://www.w3.org/2000/svg" xmlns:xlink="http://www.w3.org/1999/xlink">
    <g id=" Logo">
        <g id=" Frame 13">
            <g id=" Tinker">
                <path d=" M110.01 38.64H99.234V68.52H93.642V38.64H82.842V33.96H110.01V38.64Z" fill=" #276ACF" />
                <path d=" M118.232 44.04V68.52H113.072V44.04H118.232ZM119.096 36.648C119.096 37.112 119 37.552 118.808 37.968C118.632 38.384 118.384 38.752 118.064 39.072C117.744 39.376 117.368 39.624 116.936 39.816C116.52 39.992 116.072 40.08 115.592 40.08C115.128 40.08 114.688 39.992 114.272 39.816C113.872 39.624 113.52 39.376 113.216 39.072C112.912 38.752 112.664 38.384 112.472 37.968C112.296 37.552 112.208 37.112 112.208 36.648C112.208 36.168 112.296 35.72 112.472 35.304C112.664 34.888 112.912 34.528 113.216 34.224C113.52 33.904 113.872 33.656 114.272 33.48C114.688 33.288 115.128 33.192 115.592 33.192C116.072 33.192 116.52 33.288 116.936 33.48C117.368 33.656 117.744 33.904 118.064 34.224C118.384 34.528 118.632 34.888 118.808 35.304C119 35.72 119.096 36.168 119.096 36.648Z" fill=" #276ACF" />
                <path d=" M128.724 47.28C129.252 46.736 129.796 46.248 130.356 45.816C130.932 45.368 131.54 44.984 132.18 44.664C132.82 44.344 133.5 44.096 134.22 43.92C134.94 43.744 135.724 43.656 136.572 43.656C137.916 43.656 139.092 43.88 140.1 44.328C141.124 44.776 141.98 45.408 142.668 46.224C143.372 47.04 143.9 48.024 144.252 49.176C144.604 50.312 144.78 51.568 144.78 52.944V68.52H139.644V52.944C139.644 51.296 139.26 50.016 138.492 49.104C137.74 48.192 136.588 47.736 135.036 47.736C133.884 47.736 132.812 48 131.82 48.528C130.844 49.056 129.924 49.776 129.06 50.688V68.52H123.9V44.04H127.02C127.724 44.04 128.172 44.368 128.364 45.024L128.724 47.28Z" fill=" #276ACF" />
                <path d=" M155.15 33V53.592H156.254C156.606 53.592 156.894 53.544 157.118 53.448C157.342 53.352 157.574 53.152 157.814 52.848L164.678 45C164.918 44.68 165.182 44.44 165.47 44.28C165.758 44.12 166.126 44.04 166.574 44.04H171.254L162.998 53.352C162.518 53.976 161.99 54.472 161.414 54.84C161.734 55.064 162.014 55.32 162.254 55.608C162.494 55.88 162.726 56.192 162.95 56.544L171.758 68.52H167.15C166.734 68.52 166.374 68.456 166.07 68.328C165.782 68.184 165.526 67.928 165.302 67.56L158.222 57.96C157.982 57.592 157.742 57.36 157.502 57.264C157.262 57.152 156.902 57.096 156.422 57.096H155.15V68.52H149.99V33H155.15Z" fill=" #276ACF" />
                <path d=" M188.995 53.52C188.995 52.656 188.867 51.856 188.611 51.12C188.371 50.368 188.011 49.72 187.531 49.176C187.051 48.616 186.451 48.184 185.731 47.88C185.027 47.56 184.211 47.4 183.283 47.4C181.411 47.4 179.939 47.936 178.867 49.008C177.795 50.08 177.115 51.584 176.827 53.52H188.995ZM176.683 56.688C176.747 58.08 176.963 59.288 177.331 60.312C177.699 61.32 178.187 62.16 178.795 62.832C179.419 63.504 180.155 64.008 181.003 64.344C181.867 64.664 182.827 64.824 183.883 64.824C184.891 64.824 185.763 64.712 186.499 64.488C187.235 64.248 187.875 63.992 188.419 63.72C188.963 63.432 189.427 63.176 189.811 62.952C190.195 62.712 190.547 62.592 190.867 62.592C191.283 62.592 191.603 62.752 191.827 63.072L193.291 64.968C192.683 65.688 191.995 66.296 191.227 66.792C190.459 67.288 189.643 67.696 188.779 68.016C187.915 68.32 187.027 68.536 186.115 68.664C185.203 68.808 184.315 68.88 183.451 68.88C181.755 68.88 180.179 68.6 178.723 68.04C177.283 67.464 176.027 66.624 174.955 65.52C173.899 64.416 173.067 63.048 172.459 61.416C171.867 59.784 171.571 57.904 171.571 55.776C171.571 54.08 171.835 52.496 172.363 51.024C172.907 49.552 173.675 48.272 174.667 47.184C175.675 46.096 176.891 45.24 178.315 44.616C179.755 43.976 181.379 43.656 183.187 43.656C184.691 43.656 186.083 43.904 187.363 44.4C188.643 44.88 189.747 45.592 190.675 46.536C191.603 47.48 192.323 48.64 192.835 50.016C193.363 51.376 193.627 52.928 193.627 54.672C193.627 55.472 193.539 56.008 193.363 56.28C193.187 56.552 192.867 56.688 192.403 56.688H176.683Z" fill=" #276ACF" />
                <path d=" M202.495 48.576C203.263 47.024 204.191 45.808 205.279 44.928C206.367 44.032 207.671 43.584 209.191 43.584C209.719 43.584 210.215 43.648 210.679 43.776C211.143 43.888 211.559 44.064 211.927 44.304L211.567 48.192C211.503 48.464 211.399 48.656 211.255 48.768C211.127 48.864 210.951 48.912 210.727 48.912C210.487 48.912 210.143 48.872 209.695 48.792C209.247 48.696 208.775 48.648 208.279 48.648C207.559 48.648 206.919 48.752 206.359 48.96C205.815 49.168 205.319 49.472 204.871 49.872C204.439 50.272 204.055 50.76 203.719 51.336C203.383 51.912 203.071 52.568 202.783 53.304V68.52H197.623V44.04H200.623C201.167 44.04 201.543 44.144 201.751 44.352C201.959 44.544 202.103 44.888 202.183 45.384L202.495 48.576Z" fill=" #276ACF" />
            </g>
        </g>
        <g id=" Frame 12">
            <path id=" Polygon 1" d=" M43.342 10L76.684 39.25H10L43.342 10Z" fill=" #9FC6FF" />
        </g>
        <g id=" Frame 11">
            <path id=" Rectangle 3" d=" M19.342 29H67.342V72H19.342V29Z" fill=" #9FC6FF" />
        </g>
        <g id=" Frame 10">
            <path id=" Rectangle 4" d=" M34.842 52H52.842V72H34.842V52Z" fill=" white" />
        </g>
    </g>
</svg>